<?xml version="1.0" standalone="no"?>
<!DOCTYPE svg PUBLIC "-//W3C//DTD SVG 20010904//EN"
 "http://www.w3.org/TR/2001/REC-SVG-20010904/DTD/svg10.dtd">
<svg version="1.0" xmlns="http://www.w3.org/2000/svg"
 width="1600.000000pt" height="1600.000000pt" viewBox="0 0 1600.000000 1600.000000"
 preserveAspectRatio="xMidYMid meet">
<metadata>
Created by potrace 1.11, written by Peter Selinger 2001-2013
</metadata>
<g transform="translate(0.000000,1600.000000) scale(0.100000,-0.100000)"
fill="#000000" stroke="none">
<path d="M8638 15047 c-20 -12 -58 -42 -84 -67 -47 -45 -166 -198 -198 -255
-9 -16 -28 -48 -41 -70 -14 -22 -35 -58 -47 -80 -12 -22 -28 -49 -34 -60 -18
-31 -94 -182 -94 -188 0 -3 -16 -33 -35 -66 -19 -34 -34 -64 -34 -66 -1 -3
-16 -38 -34 -78 -19 -39 -41 -90 -51 -112 -9 -22 -23 -53 -31 -68 -8 -16 -15
-33 -15 -38 0 -6 -11 -34 -24 -62 -67 -149 -277 -749 -342 -982 -78 -278 -168
-650 -180 -744 -3 -19 -6 -37 -8 -40 -3 -4 -7 -27 -10 -51 -4 -25 -9 -58 -13
-75 -3 -16 -7 -40 -9 -52 -1 -13 -5 -42 -9 -65 -4 -24 -8 -54 -10 -68 -2 -14
-6 -45 -10 -70 -4 -25 -8 -56 -10 -70 -2 -14 -7 -59 -10 -100 -4 -41 -9 -88
-10 -105 -22 -195 -21 -575 0 -750 5 -40 19 -139 20 -145 1 -3 9 -48 19 -100
l18 -95 -57 -84 c-84 -125 -116 -197 -180 -396 -142 -448 -175 -554 -190 -610
-21 -77 -54 -184 -65 -210 -4 -11 -14 -36 -21 -55 -13 -36 -67 -150 -189 -405
-99 -207 -106 -222 -125 -285 l-16 -55 -117 116 c-132 131 -204 186 -412 316
-216 135 -221 142 -236 293 -7 68 -25 104 -63 123 -27 13 -32 13 -68 -8 -21
-12 -59 -42 -85 -66 -84 -79 -69 -77 -172 -27 -115 58 -158 71 -197 63 -32 -7
-59 -51 -59 -95 0 -16 -7 -20 -37 -21 -63 -3 -103 -7 -119 -13 -19 -7 -19 -5
17 93 17 47 42 118 56 156 13 39 29 79 34 90 5 11 27 72 50 135 22 63 51 145
64 181 24 64 54 132 153 339 59 123 58 146 -4 144 -63 -3 -228 -23 -314 -39
-35 -7 -91 -16 -115 -20 -40 -6 -92 -16 -230 -45 -116 -25 -212 -47 -525 -125
-74 -18 -106 -26 -175 -45 -44 -12 -87 -24 -95 -26 -21 -5 -93 -24 -105 -28
-5 -1 -35 -10 -66 -20 -31 -9 -65 -18 -75 -21 -11 -2 -38 -10 -61 -19 -24 -8
-43 -13 -43 -10 0 2 -13 -2 -30 -11 -16 -9 -30 -13 -30 -10 0 3 -17 -1 -38 -9
-20 -8 -82 -28 -137 -46 -87 -27 -146 -48 -220 -76 -11 -4 -22 -8 -25 -9 -19
-5 -73 -23 -195 -67 -77 -27 -144 -51 -150 -52 -21 -5 -61 -18 -80 -26 -11 -5
-47 -18 -80 -29 -33 -11 -118 -41 -190 -66 -71 -26 -146 -52 -165 -57 -19 -6
-41 -15 -47 -20 -7 -6 -13 -8 -13 -4 0 3 -17 -1 -37 -10 -21 -9 -42 -17 -48
-18 -5 -2 -18 -6 -27 -9 -25 -10 -52 -18 -58 -19 -3 0 -23 -9 -45 -21 -22 -11
-42 -20 -45 -20 -6 1 -8 0 -135 -50 -116 -45 -532 -220 -610 -257 -33 -15
-131 -60 -218 -99 -87 -40 -166 -76 -175 -81 -10 -5 -69 -34 -132 -65 -63 -31
-122 -60 -130 -65 -8 -5 -55 -30 -104 -57 -113 -60 -151 -82 -200 -112 l-38
-24 5 -61 c3 -34 10 -86 16 -116 6 -30 13 -68 16 -85 19 -115 97 -387 152
-535 3 -8 7 -19 9 -25 1 -5 48 -147 104 -315 55 -168 103 -312 105 -320 10
-38 124 -370 139 -403 28 -64 44 -100 66 -152 22 -51 38 -87 66 -152 9 -20 29
-68 45 -106 78 -188 236 -437 270 -425 4 2 65 59 136 128 166 161 258 244 424
381 170 141 154 128 284 226 60 45 115 86 120 91 37 28 273 196 335 237 41 28
77 53 78 58 2 4 8 7 13 7 5 0 37 19 72 43 159 111 544 338 727 429 36 18 67
36 68 41 2 4 7 5 11 3 4 -3 2 -38 -5 -78 -7 -40 -24 -140 -39 -223 -27 -157
-33 -191 -40 -240 -2 -16 -6 -41 -9 -54 -3 -12 -8 -43 -11 -68 -2 -24 -7 -48
-9 -51 -2 -4 -7 -29 -10 -56 -4 -27 -13 -83 -21 -125 -8 -42 -17 -96 -20 -121
-3 -25 -8 -52 -10 -60 -2 -8 -7 -31 -10 -50 -18 -107 -22 -132 -30 -169 -2
-12 -7 -42 -9 -65 -3 -22 -8 -52 -11 -66 -3 -14 -10 -54 -15 -90 -6 -36 -15
-85 -20 -110 -5 -25 -12 -61 -14 -80 -2 -19 -6 -44 -9 -55 -2 -11 -8 -42 -12
-70 -12 -81 -14 -89 -19 -115 -3 -13 -8 -42 -11 -65 -3 -22 -14 -87 -25 -145
-18 -102 -23 -131 -36 -215 -3 -22 -7 -47 -9 -55 -1 -8 4 -22 12 -32 13 -15
20 -13 81 19 37 20 74 42 83 49 8 8 18 14 22 14 3 0 45 23 93 50 48 28 88 50
89 50 2 0 69 38 150 85 81 47 149 85 150 85 2 0 114 63 249 140 136 77 249
140 253 140 3 0 14 6 22 14 9 7 41 26 71 42 30 16 79 44 108 62 49 31 58 32
52 7 -1 -5 -4 -26 -6 -45 -2 -19 -6 -46 -9 -60 -6 -29 -11 -58 -20 -120 -12
-83 -16 -105 -30 -185 -8 -44 -17 -98 -20 -120 -4 -22 -13 -78 -21 -125 -7
-47 -16 -101 -19 -120 -3 -19 -13 -75 -21 -125 -9 -49 -18 -106 -20 -125 -6
-45 -11 -76 -18 -98 -2 -9 -7 -37 -10 -62 -4 -25 -8 -56 -11 -70 -2 -14 -11
-65 -20 -115 -9 -49 -18 -115 -21 -146 -8 -81 3 -85 101 -39 44 22 112 53 150
71 80 37 243 114 360 169 285 134 380 178 382 176 1 -1 -29 -163 -42 -222 -5
-21 -16 -86 -20 -114 -10 -73 -27 -109 -115 -240 -95 -142 -147 -228 -209
-342 -16 -31 -35 -65 -40 -75 -46 -83 -143 -356 -157 -443 -3 -19 -7 -37 -9
-41 -2 -3 -7 -39 -11 -80 -34 -343 53 -603 282 -834 36 -37 64 -68 62 -69 -13
-11 -476 -285 -503 -299 -49 -24 -340 -258 -393 -316 -54 -57 -92 -129 -88
-165 2 -15 13 -37 25 -50 11 -12 21 -27 21 -32 0 -22 52 -64 87 -70 21 -4 43
-10 49 -15 10 -8 164 -5 214 5 14 3 45 7 70 10 53 6 44 4 235 51 83 20 157 38
165 40 8 2 56 13 105 25 50 12 97 24 105 25 71 16 224 57 260 70 25 9 52 18
60 20 55 13 605 202 650 223 64 31 70 36 118 80 l35 33 196 4 c173 4 283 11
331 20 8 2 35 6 60 9 25 4 72 11 105 16 33 5 80 12 105 15 25 3 56 8 70 10 14
2 49 7 79 10 30 4 63 9 75 11 20 4 44 7 136 19 25 3 57 8 71 11 15 2 47 6 70
9 24 3 55 8 69 10 14 2 45 7 70 10 25 3 70 10 100 15 145 24 179 23 255 -10
11 -5 29 -11 40 -13 11 -3 61 -20 110 -37 122 -43 158 -52 445 -103 58 -11
147 -27 170 -32 14 -3 50 -9 80 -15 30 -5 69 -12 85 -15 28 -6 161 -31 213
-40 12 -2 30 -6 40 -9 9 -3 33 -7 52 -10 19 -3 73 -13 120 -22 47 -9 91 -17
99 -18 8 -2 21 -20 28 -41 27 -79 83 -129 155 -139 18 -3 49 -8 68 -10 19 -3
64 -10 100 -15 97 -15 125 -20 245 -36 61 -9 126 -18 145 -21 19 -3 46 -8 60
-10 14 -1 89 -12 165 -24 77 -11 156 -23 175 -26 19 -2 49 -6 65 -9 38 -6 101
-15 144 -21 19 -2 46 -6 60 -9 14 -2 49 -7 76 -11 28 -3 59 -8 70 -10 10 -2
37 -6 60 -9 22 -3 51 -8 65 -10 14 -2 45 -7 70 -10 25 -3 70 -10 100 -15 130
-21 160 -24 243 -25 77 0 91 3 105 20 14 16 25 19 62 15 61 -7 97 6 116 42 14
27 14 32 -1 54 -9 14 -12 30 -8 37 21 33 -1 82 -57 127 -18 14 -46 37 -63 52
-18 15 -38 28 -44 28 -7 0 -13 4 -13 8 0 17 -404 234 -550 295 -19 8 -50 21
-67 28 -18 8 -33 18 -33 22 0 4 18 35 40 67 81 119 193 355 216 452 54 234 54
457 -1 638 -34 111 -142 342 -177 380 -10 11 -18 23 -18 28 0 7 -85 117 -114
148 -6 6 -30 33 -52 60 -23 27 -90 105 -150 174 -102 118 -174 217 -174 239 0
5 -5 22 -12 38 -39 97 -43 344 -7 488 5 22 12 48 14 58 2 10 7 28 11 40 4 12
8 29 9 37 1 8 10 47 20 85 l18 70 176 58 c157 51 299 104 401 149 107 48 137
62 241 112 141 69 264 137 434 239 174 106 530 353 591 411 6 6 28 25 49 41
21 17 43 35 49 40 6 6 43 37 81 70 78 67 259 246 349 345 l58 65 95 0 c86 1
97 3 113 23 18 21 18 24 0 71 -10 27 -25 60 -34 72 -20 29 -21 49 -1 49 29 0
72 29 78 51 4 15 -4 40 -21 71 l-27 47 38 36 c20 19 41 35 46 35 5 0 11 12 14
27 6 30 -13 74 -40 95 -10 7 -27 23 -37 36 -19 22 -19 22 1 45 19 20 43 84 43
114 0 22 -84 51 -170 58 -47 4 -89 10 -93 15 -5 4 -10 33 -11 64 -3 58 -21 90
-57 101 -22 7 -46 -4 -87 -43 -38 -36 -70 -41 -214 -37 -62 2 -144 5 -183 6
-63 2 -174 -5 -277 -16 -21 -3 -72 -7 -115 -11 -128 -9 -133 -10 -276 -48 -75
-20 -142 -37 -149 -39 -7 -1 -12 26 -13 83 -1 47 -6 121 -11 165 -15 131 -9
420 10 520 2 11 7 40 11 65 4 25 9 54 11 65 3 11 7 34 10 52 3 18 23 96 45
175 47 165 87 320 94 363 3 17 10 55 15 85 35 195 30 529 -10 720 -5 25 -12
56 -14 70 -2 14 -6 32 -9 40 -3 8 -8 28 -11 43 l-7 28 113 -6 c62 -4 149 -6
193 -7 75 0 117 3 290 18 39 3 97 7 130 9 33 2 89 6 125 9 88 8 181 15 265 20
148 10 296 23 335 30 14 3 47 7 74 11 27 3 52 8 55 10 3 1 33 6 65 9 32 4 62
8 65 10 3 2 31 7 61 11 30 3 62 8 70 10 8 3 35 7 59 10 23 3 46 7 50 9 3 2 31
7 62 10 31 3 80 11 110 16 30 6 68 12 84 15 29 4 95 18 183 39 9 3 172 41 362
85 190 44 399 96 465 116 66 20 136 41 155 46 19 6 44 14 55 19 11 5 45 16 75
25 30 10 69 23 85 30 17 7 64 25 105 40 41 16 101 40 133 56 31 15 57 26 57
24 0 -6 206 112 244 139 57 40 66 51 66 74 0 19 -13 29 -72 56 -153 70 -234
103 -338 135 -41 13 -84 28 -95 32 -17 7 -70 22 -125 35 -8 2 -42 10 -76 18
-34 8 -72 17 -85 20 -13 3 -49 10 -79 16 -30 6 -70 13 -89 16 -18 2 -36 6 -40
9 -4 2 -32 6 -62 9 -30 3 -85 10 -124 15 -68 10 -159 20 -240 26 -39 4 -256
14 -419 20 -130 5 -327 5 -376 0 -25 -2 -97 -7 -160 -10 -63 -3 -140 -8 -170
-10 -53 -4 -169 -11 -315 -20 -38 -3 -104 -7 -145 -10 -41 -3 -108 -8 -148
-10 -41 -3 -78 -8 -83 -11 -6 -3 -20 -7 -32 -9 -47 -6 -103 -16 -119 -21 -20
-6 -53 -13 -97 -20 -18 -3 -41 -7 -50 -9 -134 -27 -492 -98 -511 -101 -14 -3
-61 -14 -105 -25 -44 -12 -87 -22 -95 -24 -8 -2 -27 -8 -43 -14 -15 -6 -38
-13 -50 -15 -12 -2 -76 -25 -143 -50 -67 -25 -126 -46 -133 -46 -6 0 -11 -4
-11 -10 0 -5 -3 -9 -7 -8 -5 1 -35 -11 -68 -26 -33 -16 -64 -29 -70 -29 -5 0
-59 34 -120 75 -151 102 -285 176 -440 242 -49 21 -103 44 -120 52 -32 14
-321 112 -352 119 -10 2 -69 17 -131 33 -62 17 -116 31 -120 31 -4 1 -16 4
-27 6 -11 2 -45 8 -75 14 -30 6 -80 13 -110 16 -30 3 -80 7 -110 10 -85 8
-148 14 -230 20 -41 3 -91 7 -110 10 -184 20 -257 22 -457 11 -165 -10 -188
-12 -263 -30 -36 -8 -80 -18 -98 -21 -19 -3 -39 -7 -45 -8 -7 -1 -11 3 -10 9
4 19 95 468 98 484 14 61 66 314 89 430 2 14 14 70 26 125 11 55 23 114 26
130 3 17 9 47 15 68 6 21 12 53 14 70 2 18 11 64 19 102 7 39 17 99 21 135 4
36 9 72 10 80 2 8 6 49 10 90 4 41 9 82 10 91 2 9 6 40 9 70 4 30 9 70 11 89
10 81 19 155 31 265 9 85 17 121 32 148 14 22 14 29 4 36 -9 5 -11 22 -7 57
15 120 25 203 30 254 4 30 8 66 10 80 7 48 18 135 20 165 1 17 5 55 9 85 4 30
9 72 11 93 6 49 14 108 20 155 2 20 7 57 10 82 7 55 8 553 2 595 -17 108 -46
169 -88 184 -43 15 -58 13 -101 -12z m-3738 -6259 c0 -16 -3 -19 -11 -11 -6 6
-8 16 -5 22 11 17 16 13 16 -11z m-114 -471 c1 -7 5 -41 8 -77 12 -110 19
-157 47 -320 20 -117 30 -167 60 -300 6 -25 12 -53 14 -63 2 -9 11 -45 20 -80
9 -34 18 -69 20 -77 2 -8 8 -30 14 -48 5 -18 10 -34 11 -37 1 -7 5 -21 40
-135 31 -103 100 -310 139 -420 11 -30 17 -58 13 -61 -4 -4 -104 -55 -222
-114 -118 -60 -222 -114 -230 -121 -8 -7 -18 -13 -23 -13 -4 0 -81 -36 -170
-79 -89 -44 -180 -87 -202 -97 -22 -10 -44 -21 -49 -23 -10 -5 -6 23 24 203 7
39 14 84 17 100 2 17 11 62 19 100 8 39 17 86 20 105 4 19 10 42 14 50 4 8 11
32 14 53 3 21 10 46 15 55 5 9 11 31 14 47 3 17 20 82 37 145 31 114 36 133
44 168 2 9 23 87 46 172 22 85 43 163 45 173 3 9 7 25 10 35 10 38 26 98 29
112 2 8 9 35 16 60 7 25 13 50 15 55 3 15 14 55 62 235 52 194 51 191 52 209
1 16 14 7 17 -12z m775 -2427 c57 -96 106 -179 109 -185 3 -6 38 -65 78 -132
l72 -121 -15 -49 c-9 -26 -20 -57 -24 -68 -5 -11 -15 -40 -22 -64 -7 -24 -20
-52 -29 -61 -12 -14 -186 -80 -251 -95 -8 -1 -32 -10 -52 -19 -20 -8 -37 -13
-37 -11 0 2 -24 -6 -52 -16 -29 -11 -60 -22 -68 -24 -18 -5 -153 -50 -227 -76
-53 -19 -62 -15 -43 19 5 9 36 85 69 167 33 83 65 164 72 180 7 17 13 35 14
40 2 6 12 31 22 55 11 25 28 68 38 95 10 28 21 55 25 60 4 6 15 33 25 60 9 28
24 65 31 83 8 17 20 47 28 65 7 17 22 55 31 82 10 28 22 54 27 60 4 5 8 14 8
21 0 24 51 127 59 118 4 -5 55 -88 112 -184z"/>
</g>
</svg>
