<svg width="30" height="30" viewBox="0 0 62 62" fill="none" xmlns="http://www.w3.org/2000/svg">
<g filter="url(#filter0_d)">
<g clip-path="url(#clip0)">
<path d="M48.9862 44.8927C58.9215 35.0106 58.9215 18.9885 48.9862 9.10634C39.0509 -0.775781 22.9425 -0.775784 13.0072 9.10634C3.07188 18.9885 3.07188 35.0106 13.0072 44.8927C22.9425 54.7748 39.0509 54.7748 48.9862 44.8927Z" fill="#1D1E1D"/>
<path d="M58 24.1864C56.5847 10.5961 45.0365 0 30.9981 0C16.9597 0 5.41531 10.5961 4 24.1864H58Z" fill="url(#paint0_linear)"/>
<path d="M4 29.8101C5.41531 43.4004 16.9635 53.9965 30.9981 53.9965C45.0327 53.9965 56.5847 43.4004 57.9962 29.8101H4Z" fill="#E7E7E9"/>
<path d="M30.998 35.5053C35.7217 35.5053 39.5511 31.6965 39.5511 26.998C39.5511 22.2996 35.7217 18.4907 30.998 18.4907C26.2742 18.4907 22.4449 22.2996 22.4449 26.998C22.4449 31.6965 26.2742 35.5053 30.998 35.5053Z" fill="#1D1E1D"/>
<path d="M30.998 33.6447C34.6887 33.6447 37.6806 30.6688 37.6806 26.9979C37.6806 23.3269 34.6887 20.3511 30.998 20.3511C27.3073 20.3511 24.3154 23.3269 24.3154 26.9979C24.3154 30.6688 27.3073 33.6447 30.998 33.6447Z" fill="#F7F7F7"/>
<path d="M30.998 31.4834C33.4887 31.4834 35.5079 29.4751 35.5079 26.9977C35.5079 24.5203 33.4887 22.512 30.998 22.512C28.5072 22.512 26.4881 24.5203 26.4881 26.9977C26.4881 29.4751 28.5072 31.4834 30.998 31.4834Z" fill="#B8B5B5"/>
<path d="M30.9979 31.1527C33.3048 31.1527 35.175 29.2926 35.175 26.998C35.175 24.7034 33.3048 22.8433 30.9979 22.8433C28.691 22.8433 26.8208 24.7034 26.8208 26.998C26.8208 29.2926 28.691 31.1527 30.9979 31.1527Z" fill="#F7F7F7"/>
</g>
</g>
<defs>
<filter id="filter0_d" x="0" y="0" width="62" height="62" filterUnits="userSpaceOnUse" color-interpolation-filters="sRGB">
<feFlood flood-opacity="0" result="BackgroundImageFix"/>
<feColorMatrix in="SourceAlpha" type="matrix" values="0 0 0 0 0 0 0 0 0 0 0 0 0 0 0 0 0 0 127 0"/>
<feOffset dy="4"/>
<feGaussianBlur stdDeviation="2"/>
<feColorMatrix type="matrix" values="0 0 0 0 0 0 0 0 0 0 0 0 0 0 0 0 0 0 0.25 0"/>
<feBlend mode="normal" in2="BackgroundImageFix" result="effect1_dropShadow"/>
<feBlend mode="normal" in="SourceGraphic" in2="effect1_dropShadow" result="shape"/>
</filter>
<linearGradient id="paint0_linear" x1="62.5803" y1="20.2452" x2="13.9059" y2="21.2724" gradientUnits="userSpaceOnUse">
<stop stop-color="#B57E10"/>
<stop offset="0.240861" stop-color="#B57E10"/>
<stop offset="0.404291" stop-color="#F9DF7B"/>
<stop offset="0.59375" stop-color="#FFF3A6"/>
<stop offset="0.78125" stop-color="#F9DF7B"/>
<stop offset="1" stop-color="#B57E10"/>
</linearGradient>
<clipPath id="clip0">
<rect width="54" height="54" fill="white" transform="translate(4)"/>
</clipPath>
</defs>
</svg>
